PathFileType	4	(X/Y/Z)	C:\Users\Basilio\Documents\Thesis Gigler\squatting_fais\c3dfiles\044\SJ_pre2\markers_experimental.trc
DataRate	CameraRate	NumFrames	NumMarkers	Units	OrigDataRate	OrigDataStartFrame	OrigNumFrames
200.000000	200.000000	4	62	mm	200.000000	640	1708
Frame#	Time	FHD			LBHD			RBHD			C7			T10			CLAV			LSHO			LUUPA			LMUPA			LDUPA			LLEP			LMEP			LRAD			LUL			LRFIN			RSHO			RUPA1			RMUPA			RDUPA			RLEP			RMEP			RRAD			RUL			RUFIN			LASI			RASI			USACR			LSACR			LTHI1			LTHI2			LTHI3			LTHI4			LLFC			LMFC			LTIB1			LTIB2			LTIB3			LTIB4			LLMAL			LMMAL			LHEE			LMT1			LMT2			LMT5			RTHI			RTHI2			RTHI3			RTHI4			RLFC			RMFC			RTIB1			RTIB2			RTIB3			RTIB4			RLMAL			RMMAL			RHEE			RMT1			RMT2			RMT5			RSACR			*61			
		X1	Y1	Z1	X2	Y2	Z2	X3	Y3	Z3	X4	Y4	Z4	X5	Y5	Z5	X6	Y6	Z6	X7	Y7	Z7	X8	Y8	Z8	X9	Y9	Z9	X10	Y10	Z10	X11	Y11	Z11	X12	Y12	Z12	X13	Y13	Z13	X14	Y14	Z14	X15	Y15	Z15	X16	Y16	Z16	X17	Y17	Z17	X18	Y18	Z18	X19	Y19	Z19	X20	Y20	Z20	X21	Y21	Z21	X22	Y22	Z22	X23	Y23	Z23	X24	Y24	Z24	X25	Y25	Z25	X26	Y26	Z26	X27	Y27	Z27	X28	Y28	Z28	X29	Y29	Z29	X30	Y30	Z30	X31	Y31	Z31	X32	Y32	Z32	X33	Y33	Z33	X34	Y34	Z34	X35	Y35	Z35	X36	Y36	Z36	X37	Y37	Z37	X38	Y38	Z38	X39	Y39	Z39	X40	Y40	Z40	X41	Y41	Z41	X42	Y42	Z42	X43	Y43	Z43	X44	Y44	Z44	X45	Y45	Z45	X46	Y46	Z46	X47	Y47	Z47	X48	Y48	Z48	X49	Y49	Z49	X50	Y50	Z50	X51	Y51	Z51	X52	Y52	Z52	X53	Y53	Z53	X54	Y54	Z54	X55	Y55	Z55	X56	Y56	Z56	X57	Y57	Z57	X58	Y58	Z58	X59	Y59	Z59	X60	Y60	Z60	X61	Y61	Z61	X62	Y62	Z62	

641	3.2	-109.7614059448242	1614.764526367188	-899.2539062500002	-238.4662628173829	1669.627807617188	-973.2090454101565	-278.9437561035157	1682.76953125	-813.4481201171877	-407.5400695800782	1529.420532226563	-893.569519042969	-523.5632934570314	1240.68896484375	-898.5805664062502	-295.4071350097657	1439.697875976563	-900.294128417969	-326.6125793457032	1499.244018554688	-1076.685668945313	-454.9424438476564	1367.61669921875	-1224.799682617188	-434.5440979003907	1321.261840820313	-1223.1435546875	-484.4736633300782	1314.205932617188	-1258.272338867188	-500.9300537109376	1258.05712890625	-1275.572265625	-564.2201538085939	1264.805541992188	-1218.334350585938	-489.4891662597657	1019.166198730469	-1124.78564453125	-457.6735229492189	998.0330200195315	-1182.69384765625	-439.991180419922	999.8123779296877	-1083.127685546875	-320.5297851562501	1473.274047851563	-704.2689208984376	-423.7017211914064	1324.955200195313	-561.7567138671876	-403.1304321289064	1278.828735351563	-568.5545654296876	-445.4395446777345	1266.642456054688	-528.9540405273439	-456.3511352539064	1205.393676757813	-515.3438110351564	-531.9761352539064	1214.225708007813	-557.0933227539064	-483.8490600585939	982.0071411132815	-682.6027221679689	-447.5357666015626	952.815612792969	-626.0806884765626	-427.7694702148439	973.004089355469	-729.0974121093751	-408.5718078613282	1007.52685546875	-1018.57568359375	-396.3884277343751	981.8828125000002	-806.9290161132815	-553.9123535156251	1083.204467773438	-897.3592529296877	-569.2042236328126	1053.392211914063	-923.9362792968752	-487.0888061523439	789.0489501953127	-1117.588989257813	-440.420135498047	719.3226928710939	-1132.731201171875	-393.3128967285157	730.1467285156251	-1127.071899414063	-453.8762817382814	661.5306396484376	-1121.08203125	-405.3769836425782	513.5827636718751	-1130.300170898438	-389.9969482421876	494.9700622558595	-1011.116638183594	-383.9761962890626	331.7532653808594	-1074.122436523438	-417.0215454101564	292.7747192382813	-1146.689697265625	-384.6445617675782	286.5935668945313	-1112.840087890625	-404.9743957519532	208.3718566894532	-1088.13525390625	-463.5179748535157	96.52581787109378	-1144.378295898438	-442.3855895996095	101.6598358154297	-1058.997192382813	-521.7476196289064	48.20152282714845	-1097.706176757813	-306.0810852050782	62.74622344970705	-1080.988403320313	-307.8580932617188	64.9451370239258	-1127.060302734375	-343.1503295898438	43.53408813476563	-1173.0009765625	-459.9341735839845	731.4969482421876	-711.4183959960939	-408.6653442382814	687.7672119140626	-702.7773437500001	-376.7854919433594	696.7301635742189	-708.8478393554689	-414.4056396484376	604.4153442382814	-717.0244140625001	-397.6130371093751	497.0628662109376	-715.1798706054689	-403.6188964843751	484.5550537109376	-835.3549804687502	-364.0916748046876	364.8661499023438	-736.3013916015626	-440.8908081054689	305.5159606933594	-682.4581298828126	-400.8954162597657	292.5381774902344	-701.6429443359376	-398.9389038085939	239.7572021484376	-725.3325805664064	-484.3663024902345	95.78085327148439	-699.7296752929689	-462.9625244140626	98.88165283203128	-782.6797485351565	-538.1920776367189	48.54618072509767	-743.1358642578126	-325.8051147460938	63.01439666748048	-756.2332763671876	-322.1138000488282	60.15153884887697	-719.1303100585939	-357.9710998535157	40.43118286132813	-665.9328613281251	-562.7084960937501	1054.0087890625	-868.1541137695315	nan	nan	nan	
642	3.205	-109.2957000732422	1614.3583984375	-899.5793457031252	-237.9480438232422	1669.221313476563	-973.5153808593752	-278.6306457519532	1682.08984375	-813.8007812500002	-407.0921325683595	1529.038452148438	-894.2402343750002	-523.5159301757814	1240.60400390625	-899.265808105469	-295.0623168945313	1439.110107421875	-900.8745727539065	-326.1191101074219	1498.625122070313	-1077.343383789063	-454.7481384277345	1367.059448242188	-1225.368286132813	-434.3467712402345	1320.72607421875	-1223.819213867188	-484.3275146484376	1313.64794921875	-1258.822387695313	-500.7338867187501	1257.61181640625	-1276.1826171875	-564.0156250000001	1264.246337890625	-1218.731567382813	-489.7420654296876	1018.813903808594	-1125.224609375	-458.0706787109376	997.4409790039065	-1183.410278320313	-440.1616210937501	999.116394042969	-1083.426147460938	-320.1676940917969	1472.321044921875	-705.3612060546876	-423.4479370117189	1324.372924804688	-562.4744262695314	-402.8236389160157	1278.01904296875	-569.0659790039064	-445.1838378906251	1265.870483398438	-529.3081054687501	-456.1365356445314	1204.95361328125	-515.9328002929689	-531.7778320312501	1213.657958984375	-557.5270996093751	-484.011688232422	981.5352172851565	-683.1608886718751	-447.5516052246095	952.2510986328127	-626.7332763671876	-427.8169250488282	972.234069824219	-729.1593627929689	-409.1060791015626	1006.840454101563	-1018.764282226563	-396.6447753906251	981.3662109375002	-807.5216064453127	-554.0970458984376	1082.859985351563	-897.641052246094	-569.4039306640626	1053.072387695313	-924.3179321289065	-487.0969238281251	788.8266601562502	-1117.93603515625	-440.2643432617189	719.1666870117189	-1133.229736328125	-393.3200988769532	730.0516357421876	-1127.51220703125	-453.683807373047	661.4028930664064	-1121.439697265625	-405.131805419922	513.5648193359376	-1130.603637695313	-389.8464355468751	494.9465942382814	-1011.503784179688	-383.4872436523438	332.1047363281251	-1074.217407226563	-416.3336486816407	292.6626586914063	-1147.138793945313	-383.7643432617188	286.7443542480469	-1113.049438476563	-404.7205200195314	208.254623413086	-1088.240112304688	-463.2261352539064	96.56812286376956	-1144.55615234375	-442.1857299804689	101.5639877319336	-1059.120483398438	-521.6605834960939	48.35496902465822	-1097.790893554688	-305.9022216796876	62.51911544799806	-1081.310424804688	-307.6738281250001	64.53269195556642	-1127.248779296875	-343.0429077148438	43.17292404174805	-1173.34521484375	-459.7415466308595	731.0399169921876	-711.3643798828126	-408.4011840820314	687.6699829101564	-702.9414062500001	-376.5249633789063	696.6143798828126	-708.9426879882814	-414.0020446777345	604.1099243164064	-716.9257812500001	-397.0344543457032	496.8392944335939	-715.0889282226564	-402.7801818847657	484.4996643066407	-835.4067382812502	-363.5504150390626	364.8376159667969	-736.2988281250001	-440.4953918457032	305.7184753417969	-682.5377197265626	-400.5711669921876	292.4343872070313	-701.7194213867189	-398.6246643066407	239.7066650390626	-725.3862304687501	-484.2765502929689	95.86132049560548	-699.7232055664064	-462.816131591797	98.96656799316409	-782.7094726562502	-538.1779174804689	48.6084442138672	-743.2155761718751	-325.8527832031251	62.9055519104004	-756.2682495117189	-322.0645141601563	60.11647415161134	-719.1678466796876	-357.9459533691407	40.49126815795899	-665.9214477539064	-562.9879760742189	1053.569702148438	-868.5300292968752	nan	nan	nan	
643	3.21	-109.2566146850586	1614.536987304688	-900.0081787109377	-237.4712371826172	1668.86279296875	-973.7871704101565	-278.3365173339844	1681.580200195313	-814.2205200195315	-406.6467590332032	1528.5546875	-895.0078125000002	-523.3832397460939	1240.324096679688	-899.877624511719	-294.9061279296876	1438.486083984375	-901.5582275390627	-325.7103881835938	1497.751953125	-1078.237060546875	-454.6126098632814	1366.467041015625	-1225.892456054688	-433.6179809570314	1320.159545898438	-1224.826049804688	-483.9476318359376	1313.400268554688	-1259.522705078125	-500.5029296875001	1257.050659179688	-1276.726318359375	-563.7809448242189	1263.671264648438	-1219.198120117188	-489.8749389648439	1018.330322265625	-1125.628784179688	-458.0996093750001	997.0307617187502	-1183.689697265625	-440.3047790527345	998.462829589844	-1083.849609375	-319.9559020996094	1472.01904296875	-705.9393920898439	-423.0737609863282	1323.862060546875	-563.1557006835939	-402.6784973144532	1277.369018554688	-569.5096435546876	-444.7130737304689	1265.06494140625	-529.8834838867189	-455.8499755859376	1204.17724609375	-516.4208984375001	-531.6806030273439	1213.077758789063	-557.9872436523439	-484.4236755371095	981.087829589844	-683.6633911132814	-447.6555175781251	951.5274658203127	-627.3005371093751	-428.1016235351564	971.6658325195315	-729.5264892578126	-409.467987060547	1006.193359375	-1018.995483398438	-396.8973999023439	981.0064086914065	-808.0281982421877	-554.3517456054689	1082.685791015625	-897.9892578125002	-569.7623901367189	1052.8193359375	-924.6326293945315	-486.9989318847657	788.8188476562502	-1118.22119140625	-440.0051269531251	719.3178100585939	-1133.53662109375	-392.9114379882814	730.2265014648439	-1127.995727539063	-453.3401184082032	661.5139770507814	-1121.900512695313	-404.6768188476564	513.5238647460939	-1130.995849609375	-389.5177307128907	495.0165405273439	-1011.991760253906	-383.0218200683594	331.9835510253907	-1074.378540039063	-415.1658935546876	293.0553588867188	-1147.427124023438	-383.3858642578126	286.7558288574219	-1113.2158203125	-404.1135559082032	208.4262237548829	-1088.55908203125	-462.9190063476564	96.5632247924805	-1144.663208007813	-441.891815185547	101.6938171386719	-1059.284057617188	-521.6445312500001	48.52629470825197	-1097.869873046875	-305.7834472656251	62.67585372924806	-1081.264404296875	-307.5157165527344	64.03390502929689	-1127.329711914063	-342.7837524414063	43.13462448120118	-1173.49267578125	-459.5488891601564	730.6286010742189	-711.4997558593751	-408.2250366210939	687.4337158203126	-702.7884521484376	-376.2413940429688	696.4424438476564	-708.9030151367189	-413.5283813476564	603.9937133789064	-716.9020385742189	-396.2373046875001	496.7054138183595	-715.1633911132814	-401.8369445800782	484.378387451172	-835.419860839844	-363.0159301757813	364.8554992675782	-736.2038574218751	-440.1308898925782	305.7465820312501	-682.5883178710939	-400.2239074707032	292.5109558105469	-701.6072387695314	-398.2196655273439	239.5001983642579	-725.4115600585939	-484.1862182617189	95.85274505615236	-699.8092041015626	-462.7329406738282	99.04947662353518	-782.7926025390627	-537.9948120117189	48.59174728393556	-743.3327026367189	-326.2608947753907	62.56941604614259	-756.4475708007814	-321.8317871093751	60.24002075195314	-718.9940795898439	-357.9142456054688	40.4997673034668	-665.9689941406251	-563.2364501953126	1053.303833007813	-868.8447265625002	nan	nan	nan	
644	3.215	-108.0616302490235	1613.943115234375	-900.6650390625002	-236.8704986572266	1668.404663085938	-974.3009033203127	-277.4111328125001	1680.846923828125	-814.9245605468752	-406.1476135253907	1528.189697265625	-895.5772705078127	-523.3378906250001	1240.177001953125	-900.3181762695315	-294.3955993652344	1437.979614257813	-901.9963989257815	-325.0277404785157	1497.171264648438	-1078.900634765625	-454.2135009765626	1365.922607421875	-1226.607543945313	-433.2373657226564	1319.429809570313	-1225.573852539063	-484.0418395996095	1312.661499023438	-1259.941162109375	-500.5355224609376	1256.499755859375	-1277.177978515625	-563.4582519531251	1263.3095703125	-1219.761962890625	-490.1533508300782	1017.86376953125	-1126.06494140625	-458.0533142089845	996.5137329101565	-1184.025634765625	-440.5251464843751	997.793151855469	-1084.219360351563	-319.6559143066407	1471.479125976563	-706.3848876953126	-422.6942138671876	1323.11572265625	-563.4738159179689	-402.4030761718751	1276.737915039063	-570.3385009765626	-444.5066528320314	1264.568969726563	-530.6160888671876	-455.6216430664064	1203.77490234375	-517.0977172851564	-531.4704589843751	1212.466552734375	-558.4352416992189	-484.914276123047	980.5591430664065	-684.0739746093751	-447.9559631347657	950.9451904296877	-627.9331054687501	-428.4576721191407	971.3730468750002	-730.2445068359376	-407.6453857421876	1006.066528320313	-1020.361572265625	-397.2359619140626	980.6550903320315	-808.3411254882815	-554.6121826171876	1082.482299804688	-898.2818603515627	-570.4680175781251	1052.928588867188	-924.827087402344	-486.6659240722657	788.813903808594	-1118.619384765625	-439.4621582031251	719.5357666015626	-1133.9404296875	-392.4459533691407	730.5381469726564	-1128.32666015625	-452.7479858398439	661.5501098632814	-1122.57421875	-404.0714416503907	513.5350952148439	-1131.441040039063	-389.0901489257814	495.1717529296876	-1012.400695800781	-382.9382019042969	331.9208068847657	-1074.6025390625	-414.5784301757814	292.8644104003907	-1147.849609375	-382.7755737304688	286.5046081542969	-1113.261108398438	-403.7600402832032	208.3956146240235	-1088.750854492188	-462.6377868652345	96.62182617187503	-1144.765014648438	-441.2962951660157	101.094482421875	-1059.370727539063	-521.6077270507814	48.51914215087892	-1097.854125976563	-305.6722106933594	62.10264587402345	-1081.48583984375	-307.3937683105469	63.76574707031251	-1127.465576171875	-343.1694946289063	42.45731735229493	-1173.514038085938	-459.457244873047	730.1914672851564	-711.5438842773439	-408.0218200683595	687.3080444335939	-702.8059082031251	-376.0588684082032	696.3582153320314	-708.8671875000001	-413.1651000976564	603.7956542968751	-716.8717651367189	-395.6400451660157	496.604217529297	-715.1546020507814	-401.0127868652345	484.2807617187501	-835.4155883789065	-362.7185058593751	364.7350463867188	-736.1094360351564	-439.7035217285157	305.7649536132813	-682.7169799804689	-399.7396850585939	292.4241333007813	-701.5208129882814	-397.9049377441407	239.5482025146485	-725.4677734375001	-484.1089172363282	95.92346191406251	-699.8013916015626	-462.9903259277345	99.47042083740237	-782.6654052734377	-538.5306396484376	49.17623519897462	-743.4260864257814	-325.8167724609376	62.92842102050783	-756.2688598632814	-322.0649108886719	60.09252929687501	-719.2189941406251	-357.9218444824219	40.44324111938477	-665.9899291992189	-563.5785522460939	1053.017333984375	-869.064880371094	nan	nan	nan	
